<svg width="64" height="64" viewBox="0 0 64 64" fill="none" xmlns="http://www.w3.org/2000/svg">
<path fill-rule="evenodd" clip-rule="evenodd" d="M27 20.2C27 19.0799 27 18.5198 26.782 18.092C26.5903 17.7157 26.2843 17.4097 25.908 17.218C25.4802 17 24.9201 17 23.8 17H20.2C19.0799 17 18.5198 17 18.092 17.218C17.7157 17.4097 17.4097 17.7157 17.218 18.092C17 18.5198 17 19.0799 17 20.2V43.8C17 44.9201 17 45.4802 17.218 45.908C17.4097 46.2843 17.7157 46.5903 18.092 46.782C18.5198 47 19.0799 47 20.2 47H23.8C24.9201 47 25.4802 47 25.908 46.782C26.2843 46.5903 26.5903 46.2843 26.782 45.908C27 45.4802 27 44.9201 27 43.8V20.2ZM47 20.2C47 19.0799 47 18.5198 46.782 18.092C46.5903 17.7157 46.2843 17.4097 45.908 17.218C45.4802 17 44.9201 17 43.8 17H40.2C39.0799 17 38.5198 17 38.092 17.218C37.7157 17.4097 37.4097 17.7157 37.218 18.092C37 18.5198 37 19.0799 37 20.2V43.8C37 44.9201 37 45.4802 37.218 45.908C37.4097 46.2843 37.7157 46.5903 38.092 46.782C38.5198 47 39.0799 47 40.2 47H43.8C44.9201 47 45.4802 47 45.908 46.782C46.2843 46.5903 46.5903 46.2843 46.782 45.908C47 45.4802 47 44.9201 47 43.8V20.2Z" fill="white"/>
</svg>
