<svg width="118" height="28" viewBox="0 0 118 28" fill="none" xmlns="http://www.w3.org/2000/svg">
<path fill-rule="evenodd" clip-rule="evenodd" d="M7.72303 1.57135C7.53191 2.03913 7.53191 2.63215 7.53191 3.81818C7.53191 4.05219 7.53191 4.26311 7.53338 4.45455H7.52841C7.51692 5.3137 7.46786 5.82947 7.25827 6.24652C7.01757 6.72548 6.63349 7.11488 6.16108 7.35893C5.74974 7.57142 5.24102 7.62116 4.39362 7.63281V7.63785C4.2048 7.63636 3.99677 7.63636 3.76596 7.63636C2.59615 7.63636 2.01124 7.63636 1.54986 7.83012C0.934682 8.08847 0.445926 8.58401 0.191111 9.20771C0 9.6755 0 10.2685 0 11.4545V16.2909C0 17.7165 0 18.4293 0.273643 18.9738C0.514347 19.4528 0.898426 19.8422 1.37083 20.0862C1.90789 20.3636 2.61093 20.3636 4.01702 20.3636H4.39362V20.3672C5.24102 20.3788 5.74974 20.4286 6.16108 20.6411C6.63349 20.8851 7.01757 21.2745 7.25827 21.7535C7.46786 22.1705 7.51692 22.6863 7.52841 23.5455H7.53191V23.9273C7.53191 25.3529 7.53191 26.0657 7.80556 26.6102C8.04626 27.0891 8.43034 27.4785 8.90275 27.7226C9.4398 28 10.1428 28 11.5489 28H27.617V20.3636H10.6702V20.3601C9.82281 20.3484 9.31409 20.2987 8.90275 20.0862C8.43034 19.8422 8.04626 19.4528 7.80556 18.9738C7.59597 18.5567 7.54691 18.041 7.53542 17.1818H7.53191V11.4545C7.53191 11.2205 7.53191 11.0096 7.53045 10.8182H7.53542C7.54691 9.95903 7.59597 9.44325 7.80556 9.02621C8.04626 8.54725 8.43034 8.15784 8.90275 7.9138C9.31409 7.70131 9.82281 7.65156 10.6702 7.63992V7.63488C10.859 7.63636 11.0671 7.63636 11.2979 7.63636H27.617V0H11.2979C10.1281 0 9.54316 0 9.08177 0.193761C8.4666 0.452109 7.97784 0.947643 7.72303 1.57135ZM45.1915 0H52.7234V28H45.1915V0ZM32.6383 20.3636H40.1702V28H32.6383V20.3636ZM97.9149 3.81818C97.9149 2.63215 97.9149 2.03913 98.106 1.57135C98.3608 0.947643 98.8496 0.452109 99.4648 0.193761C99.9261 0 100.511 0 101.681 0H118V7.63636H101.681C101.45 7.63636 101.242 7.63636 101.053 7.63488V7.63992C100.206 7.65156 99.6971 7.70131 99.2857 7.9138C98.8133 8.15784 98.4292 8.54725 98.1885 9.02621C97.979 9.44325 97.9299 9.95903 97.9184 10.8182H97.9134C97.9149 11.0096 97.9149 11.2205 97.9149 11.4545V17.1818H97.9184C97.9299 18.041 97.979 18.5567 98.1885 18.9738C98.4292 19.4528 98.8133 19.8422 99.2857 20.0862C99.6971 20.2987 100.206 20.3484 101.053 20.3601V20.3636H118V28H101.932C100.526 28 99.8228 28 99.2857 27.7226C98.8133 27.4785 98.4292 27.0891 98.1885 26.6102C97.9149 26.0657 97.9149 25.3529 97.9149 23.9273V23.5455H97.9114C97.8999 22.6863 97.8508 22.1705 97.6413 21.7535C97.4006 21.2745 97.0165 20.8851 96.5441 20.6411C96.1327 20.4286 95.624 20.3788 94.7766 20.3672V20.3636H94.4C92.9939 20.3636 92.2909 20.3636 91.7538 20.0862C91.2814 19.8422 90.8973 19.4528 90.6566 18.9738C90.383 18.4293 90.383 17.7165 90.383 16.2909V11.4545C90.383 10.2685 90.383 9.6755 90.5741 9.20771C90.8289 8.58401 91.3177 8.08847 91.9328 7.83012C92.3942 7.63636 92.9791 7.63636 94.1489 7.63636C94.3797 7.63636 94.5878 7.63636 94.7766 7.63785V7.63281C95.624 7.62116 96.1327 7.57142 96.5441 7.35893C97.0165 7.11488 97.4006 6.72548 97.6413 6.24652C97.8508 5.82947 97.8999 5.3137 97.9114 4.45455H97.9164C97.9149 4.26311 97.9149 4.05219 97.9149 3.81818ZM65.4677 1.57135C65.2766 2.03913 65.2766 2.63215 65.2766 3.81818C65.2766 4.05219 65.2766 4.26311 65.2781 4.45455H65.2731C65.2616 5.3137 65.2125 5.82947 65.003 6.24652C64.7623 6.72548 64.3782 7.11488 63.9058 7.35893C63.4944 7.57142 62.9857 7.62116 62.1383 7.63281V7.63785C61.9495 7.63636 61.7414 7.63636 61.5106 7.63636C60.3408 7.63636 59.7559 7.63636 59.2945 7.83012C58.6794 8.08847 58.1906 8.58401 57.9358 9.20771C57.7447 9.6755 57.7447 10.2685 57.7447 11.4545V28H65.2766V11.4545C65.2766 11.2205 65.2766 11.0096 65.2751 10.8182H65.2801C65.2916 9.95903 65.3407 9.44325 65.5502 9.02621C65.7909 8.54725 66.175 8.15784 66.6474 7.9138C67.0588 7.70131 67.5675 7.65156 68.4149 7.63992V7.63488C68.6037 7.63636 68.8117 7.63636 69.0426 7.63636H74.6915V7.63992C75.5389 7.65156 76.0476 7.70131 76.459 7.9138C76.9314 8.15784 77.3154 8.54725 77.5561 9.02621C77.7657 9.44325 77.8148 9.95903 77.8263 10.8182H77.8298V28H85.3617V11.7091C85.3617 10.2835 85.3617 9.57071 85.0881 9.02621C84.8474 8.54725 84.4633 8.15784 83.9909 7.9138C83.4538 7.63636 82.7508 7.63636 81.3447 7.63636H80.9681V7.63281C80.1207 7.62116 79.612 7.57142 79.2006 7.35893C78.7282 7.11488 78.3441 6.72548 78.1034 6.24652C77.8938 5.82947 77.8448 5.3137 77.8333 4.45455H77.8298V4.07273C77.8298 2.64714 77.8298 1.93435 77.5561 1.38984C77.3154 0.910884 76.9314 0.521479 76.459 0.277438C75.9219 0 75.2189 0 73.8128 0H69.0426C67.8727 0 67.2878 0 66.8265 0.193761C66.2113 0.452109 65.7225 0.947643 65.4677 1.57135Z" fill="url(#paint0_linear_35_20)"/>
<defs>
<linearGradient id="paint0_linear_35_20" x1="0" y1="14" x2="118" y2="14" gradientUnits="userSpaceOnUse">
<stop stop-color="#999999"/>
<stop offset="0.445" stop-color="white"/>
<stop offset="1" stop-color="#999999" stop-opacity="0.72"/>
</linearGradient>
</defs>
</svg>
